<svg xmlns="http://www.w3.org/2000/svg" version="1.1" xmlns:xlink="http://www.w3.org/1999/xlink" xmlns:svgjs="http://svgjs.com/svgjs" width="1440" height="560" preserveAspectRatio="none" viewBox="0 0 1440 560"><g mask="url(&quot;#SvgjsMask1006&quot;)" fill="none"><rect width="1440" height="560" x="0" y="0" fill="rgba(54, 191, 237, 1)"></rect><path d="M4.84 -54.19L69.79 -16.69L69.79 58.31L4.84 95.81L-60.11 58.31L-60.11 -16.69zM4.84 170.81L69.79 208.31L69.79 283.31L4.84 320.81L-60.11 283.31L-60.11 208.31zM69.79 283.31L134.75 320.81L134.75 395.81L69.79 433.31L4.84 395.81L4.84 320.81zM4.84 395.81L69.79 433.31L69.79 508.31L4.84 545.81L-60.11 508.31L-60.11 433.31zM69.79 508.31L134.75 545.81L134.75 620.81L69.79 658.31L4.84 620.81L4.84 545.81zM199.7 508.31L264.65 545.81L264.65 620.81L199.7 658.31L134.75 620.81L134.75 545.81zM264.65 -54.19L329.61 -16.69L329.61 58.31L264.65 95.81L199.7 58.31L199.7 -16.69zM264.65 395.81L329.61 433.31L329.61 508.31L264.65 545.81L199.7 508.31L199.7 433.31zM459.52 58.31L524.47 95.81L524.47 170.81L459.52 208.31L394.56 170.81L394.56 95.81zM394.56 170.81L459.52 208.31L459.52 283.31L394.56 320.81L329.61 283.31L329.61 208.31zM394.56 395.81L459.52 433.31L459.52 508.31L394.56 545.81L329.61 508.31L329.61 433.31zM459.52 508.31L524.47 545.81L524.47 620.81L459.52 658.31L394.56 620.81L394.56 545.81zM589.42 58.31L654.38 95.81L654.38 170.81L589.42 208.31L524.47 170.81L524.47 95.81zM524.47 170.81L589.42 208.31L589.42 283.31L524.47 320.81L459.52 283.31L459.52 208.31zM589.42 283.31L654.38 320.81L654.38 395.81L589.42 433.31L524.47 395.81L524.47 320.81zM524.47 395.81L589.42 433.31L589.42 508.31L524.47 545.81L459.52 508.31L459.52 433.31zM719.33 58.31L784.29 95.81L784.29 170.81L719.33 208.31L654.38 170.81L654.38 95.81zM784.28 -54.19L849.24 -16.69L849.24 58.31L784.28 95.81L719.33 58.31L719.33 -16.69zM784.28 395.81L849.24 433.31L849.24 508.31L784.28 545.81L719.33 508.31L719.33 433.31zM979.15 283.31L1044.1 320.81L1044.1 395.81L979.15 433.31L914.19 395.81L914.19 320.81zM914.19 395.81L979.15 433.31L979.15 508.31L914.19 545.81L849.24 508.31L849.24 433.31zM979.15 508.31L1044.1 545.81L1044.1 620.81L979.15 658.31L914.19 620.81L914.19 545.81zM1044.1 -54.19L1109.05 -16.69L1109.05 58.31L1044.1 95.81L979.15 58.31L979.15 -16.69zM1109.05 283.31L1174.01 320.81L1174.01 395.81L1109.05 433.31L1044.1 395.81L1044.1 320.81zM1044.1 395.81L1109.05 433.31L1109.05 508.31L1044.1 545.81L979.15 508.31L979.15 433.31zM1174.01 -54.19L1238.96 -16.69L1238.96 58.31L1174.01 95.81L1109.05 58.31L1109.05 -16.69zM1238.96 58.31L1303.91 95.81L1303.91 170.81L1238.96 208.31L1174.01 170.81L1174.01 95.81zM1174.01 170.81L1238.96 208.31L1238.96 283.31L1174.01 320.81L1109.05 283.31L1109.05 208.31zM1238.96 283.31L1303.91 320.81L1303.91 395.81L1238.96 433.31L1174.01 395.81L1174.01 320.81zM1174.01 395.81L1238.96 433.31L1238.96 508.31L1174.01 545.81L1109.05 508.31L1109.05 433.31zM1303.91 395.81L1368.87 433.31L1368.87 508.31L1303.91 545.81L1238.96 508.31L1238.96 433.31zM1368.87 508.31L1433.82 545.81L1433.82 620.81L1368.87 658.31L1303.91 620.81L1303.91 545.81zM1433.82 170.81L1498.78 208.31L1498.78 283.31L1433.82 320.81L1368.87 283.31L1368.87 208.31zM1498.78 283.31L1563.73 320.81L1563.73 395.81L1498.78 433.31L1433.82 395.81L1433.82 320.81zM1433.82 395.81L1498.78 433.31L1498.78 508.31L1433.82 545.81L1368.87 508.31L1368.87 433.31zM1498.78 508.31L1563.73 545.81L1563.73 620.81L1498.78 658.31L1433.82 620.81L1433.82 545.81z" stroke="rgba(99, 182, 210, 1)" stroke-width="2"></path><path d="M-2.66 -54.19 a7.5 7.5 0 1 0 15 0 a7.5 7.5 0 1 0 -15 0zM62.29 -16.69 a7.5 7.5 0 1 0 15 0 a7.5 7.5 0 1 0 -15 0zM62.29 58.31 a7.5 7.5 0 1 0 15 0 a7.5 7.5 0 1 0 -15 0zM-2.66 95.81 a7.5 7.5 0 1 0 15 0 a7.5 7.5 0 1 0 -15 0zM-67.61 58.31 a7.5 7.5 0 1 0 15 0 a7.5 7.5 0 1 0 -15 0zM-67.61 -16.69 a7.5 7.5 0 1 0 15 0 a7.5 7.5 0 1 0 -15 0zM-2.66 170.81 a7.5 7.5 0 1 0 15 0 a7.5 7.5 0 1 0 -15 0zM62.29 208.31 a7.5 7.5 0 1 0 15 0 a7.5 7.5 0 1 0 -15 0zM62.29 283.31 a7.5 7.5 0 1 0 15 0 a7.5 7.5 0 1 0 -15 0zM-2.66 320.81 a7.5 7.5 0 1 0 15 0 a7.5 7.5 0 1 0 -15 0zM-67.61 283.31 a7.5 7.5 0 1 0 15 0 a7.5 7.5 0 1 0 -15 0zM-67.61 208.31 a7.5 7.5 0 1 0 15 0 a7.5 7.5 0 1 0 -15 0zM127.25 320.81 a7.5 7.5 0 1 0 15 0 a7.5 7.5 0 1 0 -15 0zM127.25 395.81 a7.5 7.5 0 1 0 15 0 a7.5 7.5 0 1 0 -15 0zM62.29 433.31 a7.5 7.5 0 1 0 15 0 a7.5 7.5 0 1 0 -15 0zM-2.66 395.81 a7.5 7.5 0 1 0 15 0 a7.5 7.5 0 1 0 -15 0zM62.29 508.31 a7.5 7.5 0 1 0 15 0 a7.5 7.5 0 1 0 -15 0zM-2.66 545.81 a7.5 7.5 0 1 0 15 0 a7.5 7.5 0 1 0 -15 0zM-67.61 508.31 a7.5 7.5 0 1 0 15 0 a7.5 7.5 0 1 0 -15 0zM-67.61 433.31 a7.5 7.5 0 1 0 15 0 a7.5 7.5 0 1 0 -15 0zM127.25 545.81 a7.5 7.5 0 1 0 15 0 a7.5 7.5 0 1 0 -15 0zM127.25 620.81 a7.5 7.5 0 1 0 15 0 a7.5 7.5 0 1 0 -15 0zM62.29 658.31 a7.5 7.5 0 1 0 15 0 a7.5 7.5 0 1 0 -15 0zM-2.66 620.81 a7.5 7.5 0 1 0 15 0 a7.5 7.5 0 1 0 -15 0zM192.2 508.31 a7.5 7.5 0 1 0 15 0 a7.5 7.5 0 1 0 -15 0zM257.15 545.81 a7.5 7.5 0 1 0 15 0 a7.5 7.5 0 1 0 -15 0zM257.15 620.81 a7.5 7.5 0 1 0 15 0 a7.5 7.5 0 1 0 -15 0zM192.2 658.31 a7.5 7.5 0 1 0 15 0 a7.5 7.5 0 1 0 -15 0zM257.15 -54.19 a7.5 7.5 0 1 0 15 0 a7.5 7.5 0 1 0 -15 0zM322.11 -16.69 a7.5 7.5 0 1 0 15 0 a7.5 7.5 0 1 0 -15 0zM322.11 58.31 a7.5 7.5 0 1 0 15 0 a7.5 7.5 0 1 0 -15 0zM257.15 95.81 a7.5 7.5 0 1 0 15 0 a7.5 7.5 0 1 0 -15 0zM192.2 58.31 a7.5 7.5 0 1 0 15 0 a7.5 7.5 0 1 0 -15 0zM192.2 -16.69 a7.5 7.5 0 1 0 15 0 a7.5 7.5 0 1 0 -15 0zM257.15 395.81 a7.5 7.5 0 1 0 15 0 a7.5 7.5 0 1 0 -15 0zM322.11 433.31 a7.5 7.5 0 1 0 15 0 a7.5 7.5 0 1 0 -15 0zM322.11 508.31 a7.5 7.5 0 1 0 15 0 a7.5 7.5 0 1 0 -15 0zM192.2 433.31 a7.5 7.5 0 1 0 15 0 a7.5 7.5 0 1 0 -15 0zM452.02 58.31 a7.5 7.5 0 1 0 15 0 a7.5 7.5 0 1 0 -15 0zM516.97 95.81 a7.5 7.5 0 1 0 15 0 a7.5 7.5 0 1 0 -15 0zM516.97 170.81 a7.5 7.5 0 1 0 15 0 a7.5 7.5 0 1 0 -15 0zM452.02 208.31 a7.5 7.5 0 1 0 15 0 a7.5 7.5 0 1 0 -15 0zM387.06 170.81 a7.5 7.5 0 1 0 15 0 a7.5 7.5 0 1 0 -15 0zM387.06 95.81 a7.5 7.5 0 1 0 15 0 a7.5 7.5 0 1 0 -15 0zM452.02 283.31 a7.5 7.5 0 1 0 15 0 a7.5 7.5 0 1 0 -15 0zM387.06 320.81 a7.5 7.5 0 1 0 15 0 a7.5 7.5 0 1 0 -15 0zM322.11 283.31 a7.5 7.5 0 1 0 15 0 a7.5 7.5 0 1 0 -15 0zM322.11 208.31 a7.5 7.5 0 1 0 15 0 a7.5 7.5 0 1 0 -15 0zM387.06 395.81 a7.5 7.5 0 1 0 15 0 a7.5 7.5 0 1 0 -15 0zM452.02 433.31 a7.5 7.5 0 1 0 15 0 a7.5 7.5 0 1 0 -15 0zM452.02 508.31 a7.5 7.5 0 1 0 15 0 a7.5 7.5 0 1 0 -15 0zM387.06 545.81 a7.5 7.5 0 1 0 15 0 a7.5 7.5 0 1 0 -15 0zM516.97 545.81 a7.5 7.5 0 1 0 15 0 a7.5 7.5 0 1 0 -15 0zM516.97 620.81 a7.5 7.5 0 1 0 15 0 a7.5 7.5 0 1 0 -15 0zM452.02 658.31 a7.5 7.5 0 1 0 15 0 a7.5 7.5 0 1 0 -15 0zM387.06 620.81 a7.5 7.5 0 1 0 15 0 a7.5 7.5 0 1 0 -15 0zM581.92 58.31 a7.5 7.5 0 1 0 15 0 a7.5 7.5 0 1 0 -15 0zM646.88 95.81 a7.5 7.5 0 1 0 15 0 a7.5 7.5 0 1 0 -15 0zM646.88 170.81 a7.5 7.5 0 1 0 15 0 a7.5 7.5 0 1 0 -15 0zM581.92 208.31 a7.5 7.5 0 1 0 15 0 a7.5 7.5 0 1 0 -15 0zM581.92 283.31 a7.5 7.5 0 1 0 15 0 a7.5 7.5 0 1 0 -15 0zM516.97 320.81 a7.5 7.5 0 1 0 15 0 a7.5 7.5 0 1 0 -15 0zM646.88 320.81 a7.5 7.5 0 1 0 15 0 a7.5 7.5 0 1 0 -15 0zM646.88 395.81 a7.5 7.5 0 1 0 15 0 a7.5 7.5 0 1 0 -15 0zM581.92 433.31 a7.5 7.5 0 1 0 15 0 a7.5 7.5 0 1 0 -15 0zM516.97 395.81 a7.5 7.5 0 1 0 15 0 a7.5 7.5 0 1 0 -15 0zM581.92 508.31 a7.5 7.5 0 1 0 15 0 a7.5 7.5 0 1 0 -15 0zM711.83 58.31 a7.5 7.5 0 1 0 15 0 a7.5 7.5 0 1 0 -15 0zM776.79 95.81 a7.5 7.5 0 1 0 15 0 a7.5 7.5 0 1 0 -15 0zM776.79 170.81 a7.5 7.5 0 1 0 15 0 a7.5 7.5 0 1 0 -15 0zM711.83 208.31 a7.5 7.5 0 1 0 15 0 a7.5 7.5 0 1 0 -15 0zM776.78 -54.19 a7.5 7.5 0 1 0 15 0 a7.5 7.5 0 1 0 -15 0zM841.74 -16.69 a7.5 7.5 0 1 0 15 0 a7.5 7.5 0 1 0 -15 0zM841.74 58.31 a7.5 7.5 0 1 0 15 0 a7.5 7.5 0 1 0 -15 0zM776.78 95.81 a7.5 7.5 0 1 0 15 0 a7.5 7.5 0 1 0 -15 0zM711.83 -16.69 a7.5 7.5 0 1 0 15 0 a7.5 7.5 0 1 0 -15 0zM776.78 395.81 a7.5 7.5 0 1 0 15 0 a7.5 7.5 0 1 0 -15 0zM841.74 433.31 a7.5 7.5 0 1 0 15 0 a7.5 7.5 0 1 0 -15 0zM841.74 508.31 a7.5 7.5 0 1 0 15 0 a7.5 7.5 0 1 0 -15 0zM776.78 545.81 a7.5 7.5 0 1 0 15 0 a7.5 7.5 0 1 0 -15 0zM711.83 508.31 a7.5 7.5 0 1 0 15 0 a7.5 7.5 0 1 0 -15 0zM711.83 433.31 a7.5 7.5 0 1 0 15 0 a7.5 7.5 0 1 0 -15 0zM971.65 283.31 a7.5 7.5 0 1 0 15 0 a7.5 7.5 0 1 0 -15 0zM1036.6 320.81 a7.5 7.5 0 1 0 15 0 a7.5 7.5 0 1 0 -15 0zM1036.6 395.81 a7.5 7.5 0 1 0 15 0 a7.5 7.5 0 1 0 -15 0zM971.65 433.31 a7.5 7.5 0 1 0 15 0 a7.5 7.5 0 1 0 -15 0zM906.69 395.81 a7.5 7.5 0 1 0 15 0 a7.5 7.5 0 1 0 -15 0zM906.69 320.81 a7.5 7.5 0 1 0 15 0 a7.5 7.5 0 1 0 -15 0zM971.65 508.31 a7.5 7.5 0 1 0 15 0 a7.5 7.5 0 1 0 -15 0zM906.69 545.81 a7.5 7.5 0 1 0 15 0 a7.5 7.5 0 1 0 -15 0zM1036.6 545.81 a7.5 7.5 0 1 0 15 0 a7.5 7.5 0 1 0 -15 0zM1036.6 620.81 a7.5 7.5 0 1 0 15 0 a7.5 7.5 0 1 0 -15 0zM971.65 658.31 a7.5 7.5 0 1 0 15 0 a7.5 7.5 0 1 0 -15 0zM906.69 620.81 a7.5 7.5 0 1 0 15 0 a7.5 7.5 0 1 0 -15 0zM1036.6 -54.19 a7.5 7.5 0 1 0 15 0 a7.5 7.5 0 1 0 -15 0zM1101.55 -16.69 a7.5 7.5 0 1 0 15 0 a7.5 7.5 0 1 0 -15 0zM1101.55 58.31 a7.5 7.5 0 1 0 15 0 a7.5 7.5 0 1 0 -15 0zM1036.6 95.81 a7.5 7.5 0 1 0 15 0 a7.5 7.5 0 1 0 -15 0zM971.65 58.31 a7.5 7.5 0 1 0 15 0 a7.5 7.5 0 1 0 -15 0zM971.65 -16.69 a7.5 7.5 0 1 0 15 0 a7.5 7.5 0 1 0 -15 0zM1101.55 283.31 a7.5 7.5 0 1 0 15 0 a7.5 7.5 0 1 0 -15 0zM1166.51 320.81 a7.5 7.5 0 1 0 15 0 a7.5 7.5 0 1 0 -15 0zM1166.51 395.81 a7.5 7.5 0 1 0 15 0 a7.5 7.5 0 1 0 -15 0zM1101.55 433.31 a7.5 7.5 0 1 0 15 0 a7.5 7.5 0 1 0 -15 0zM1101.55 508.31 a7.5 7.5 0 1 0 15 0 a7.5 7.5 0 1 0 -15 0zM1166.51 -54.19 a7.5 7.5 0 1 0 15 0 a7.5 7.5 0 1 0 -15 0zM1231.46 -16.69 a7.5 7.5 0 1 0 15 0 a7.5 7.5 0 1 0 -15 0zM1231.46 58.31 a7.5 7.5 0 1 0 15 0 a7.5 7.5 0 1 0 -15 0zM1166.51 95.81 a7.5 7.5 0 1 0 15 0 a7.5 7.5 0 1 0 -15 0zM1296.41 95.81 a7.5 7.5 0 1 0 15 0 a7.5 7.5 0 1 0 -15 0zM1296.41 170.81 a7.5 7.5 0 1 0 15 0 a7.5 7.5 0 1 0 -15 0zM1231.46 208.31 a7.5 7.5 0 1 0 15 0 a7.5 7.5 0 1 0 -15 0zM1166.51 170.81 a7.5 7.5 0 1 0 15 0 a7.5 7.5 0 1 0 -15 0zM1231.46 283.31 a7.5 7.5 0 1 0 15 0 a7.5 7.5 0 1 0 -15 0zM1101.55 208.31 a7.5 7.5 0 1 0 15 0 a7.5 7.5 0 1 0 -15 0zM1296.41 320.81 a7.5 7.5 0 1 0 15 0 a7.5 7.5 0 1 0 -15 0zM1296.41 395.81 a7.5 7.5 0 1 0 15 0 a7.5 7.5 0 1 0 -15 0zM1231.46 433.31 a7.5 7.5 0 1 0 15 0 a7.5 7.5 0 1 0 -15 0zM1231.46 508.31 a7.5 7.5 0 1 0 15 0 a7.5 7.5 0 1 0 -15 0zM1166.51 545.81 a7.5 7.5 0 1 0 15 0 a7.5 7.5 0 1 0 -15 0zM1361.37 433.31 a7.5 7.5 0 1 0 15 0 a7.5 7.5 0 1 0 -15 0zM1361.37 508.31 a7.5 7.5 0 1 0 15 0 a7.5 7.5 0 1 0 -15 0zM1296.41 545.81 a7.5 7.5 0 1 0 15 0 a7.5 7.5 0 1 0 -15 0zM1426.32 545.81 a7.5 7.5 0 1 0 15 0 a7.5 7.5 0 1 0 -15 0zM1426.32 620.81 a7.5 7.5 0 1 0 15 0 a7.5 7.5 0 1 0 -15 0zM1361.37 658.31 a7.5 7.5 0 1 0 15 0 a7.5 7.5 0 1 0 -15 0zM1296.41 620.81 a7.5 7.5 0 1 0 15 0 a7.5 7.5 0 1 0 -15 0zM1426.32 170.81 a7.5 7.5 0 1 0 15 0 a7.5 7.5 0 1 0 -15 0zM1491.28 208.31 a7.5 7.5 0 1 0 15 0 a7.5 7.5 0 1 0 -15 0zM1491.28 283.31 a7.5 7.5 0 1 0 15 0 a7.5 7.5 0 1 0 -15 0zM1426.32 320.81 a7.5 7.5 0 1 0 15 0 a7.5 7.5 0 1 0 -15 0zM1361.37 283.31 a7.5 7.5 0 1 0 15 0 a7.5 7.5 0 1 0 -15 0zM1361.37 208.31 a7.5 7.5 0 1 0 15 0 a7.5 7.5 0 1 0 -15 0zM1556.23 320.81 a7.5 7.5 0 1 0 15 0 a7.5 7.5 0 1 0 -15 0zM1556.23 395.81 a7.5 7.5 0 1 0 15 0 a7.5 7.5 0 1 0 -15 0zM1491.28 433.31 a7.5 7.5 0 1 0 15 0 a7.5 7.5 0 1 0 -15 0zM1426.32 395.81 a7.5 7.5 0 1 0 15 0 a7.5 7.5 0 1 0 -15 0zM1491.28 508.31 a7.5 7.5 0 1 0 15 0 a7.5 7.5 0 1 0 -15 0zM1556.23 545.81 a7.5 7.5 0 1 0 15 0 a7.5 7.5 0 1 0 -15 0zM1556.23 620.81 a7.5 7.5 0 1 0 15 0 a7.5 7.5 0 1 0 -15 0zM1491.28 658.31 a7.5 7.5 0 1 0 15 0 a7.5 7.5 0 1 0 -15 0z" fill="rgba(99, 182, 210, 1)"></path><path d="M47.62 -45.24L90.92 -20.24L90.92 29.76L47.62 54.76L4.32 29.76L4.32 -20.24zM90.92 329.76L134.22 354.76L134.22 404.76L90.92 429.76L47.62 404.76L47.62 354.76zM177.53 29.76L220.83 54.76L220.83 104.76L177.53 129.76L134.22 104.76L134.22 54.76zM177.53 329.76L220.83 354.76L220.83 404.76L177.53 429.76L134.22 404.76L134.22 354.76zM134.22 404.76L177.53 429.76L177.53 479.76L134.22 504.76L90.92 479.76L90.92 429.76zM307.44 -45.24L350.74 -20.24L350.74 29.76L307.44 54.76L264.13 29.76L264.13 -20.24zM350.74 29.76L394.04 54.76L394.04 104.76L350.74 129.76L307.44 104.76L307.44 54.76zM350.74 329.76L394.04 354.76L394.04 404.76L350.74 429.76L307.44 404.76L307.44 354.76zM610.55 29.76L653.86 54.76L653.86 104.76L610.55 129.76L567.25 104.76L567.25 54.76zM567.25 254.76L610.55 279.76L610.55 329.76L567.25 354.76L523.95 329.76L523.95 279.76zM697.16 329.76L740.46 354.76L740.46 404.76L697.16 429.76L653.86 404.76L653.86 354.76zM697.16 479.76L740.46 504.76L740.46 554.76L697.16 579.76L653.86 554.76L653.86 504.76zM783.76 29.76L827.07 54.76L827.07 104.76L783.76 129.76L740.46 104.76L740.46 54.76zM783.76 179.76L827.07 204.76L827.07 254.76L783.76 279.76L740.46 254.76L740.46 204.76zM740.46 404.76L783.76 429.76L783.76 479.76L740.46 504.76L697.16 479.76L697.16 429.76zM870.37 329.76L913.67 354.76L913.67 404.76L870.37 429.76L827.07 404.76L827.07 354.76zM956.97 29.76L1000.28 54.76L1000.28 104.76L956.97 129.76L913.67 104.76L913.67 54.76zM1043.58 329.76L1086.88 354.76L1086.88 404.76L1043.58 429.76L1000.28 404.76L1000.28 354.76zM1086.88 254.76L1130.18 279.76L1130.18 329.76L1086.88 354.76L1043.58 329.76L1043.58 279.76zM1216.79 29.76L1260.09 54.76L1260.09 104.76L1216.79 129.76L1173.48 104.76L1173.48 54.76zM1303.39 179.76L1346.69 204.76L1346.69 254.76L1303.39 279.76L1260.09 254.76L1260.09 204.76zM1260.09 404.76L1303.39 429.76L1303.39 479.76L1260.09 504.76L1216.79 479.76L1216.79 429.76zM1303.39 479.76L1346.69 504.76L1346.69 554.76L1303.39 579.76L1260.09 554.76L1260.09 504.76zM1390 179.76L1433.3 204.76L1433.3 254.76L1390 279.76L1346.69 254.76L1346.69 204.76zM1346.69 254.76L1390 279.76L1390 329.76L1346.69 354.76L1303.39 329.76L1303.39 279.76zM1433.3 104.76L1476.6 129.76L1476.6 179.76L1433.3 204.76L1390 179.76L1390 129.76zM1433.3 404.76L1476.6 429.76L1476.6 479.76L1433.3 504.76L1390 479.76L1390 429.76z" stroke="rgba(187, 227, 241, 1)" stroke-width="2"></path></g><defs><mask id="SvgjsMask1006"><rect width="1440" height="560" fill="#ffffff"></rect></mask></defs></svg>