<svg xmlns="http://www.w3.org/2000/svg" version="1.1" xmlns:xlink="http://www.w3.org/1999/xlink" xmlns:svgjs="http://svgjs.com/svgjs" width="1920" height="400" preserveAspectRatio="none" viewBox="0 0 1920 400"><g mask="url(&quot;#SvgjsMask1068&quot;)" fill="none"><rect width="1920" height="400" x="0" y="0" fill="rgba(54, 191, 237, 1)"></rect><path d="M331 225L330 -18" stroke-width="10" stroke="url(#SvgjsLinearGradient1069)" stroke-linecap="round" class="Down"></path><path d="M886 260L885 538" stroke-width="8" stroke="url(#SvgjsLinearGradient1069)" stroke-linecap="round" class="Down"></path><path d="M1750 352L1749 470" stroke-width="6" stroke="url(#SvgjsLinearGradient1070)" stroke-linecap="round" class="Up"></path><path d="M883 25L882 309" stroke-width="10" stroke="url(#SvgjsLinearGradient1069)" stroke-linecap="round" class="Down"></path><path d="M551 391L550 592" stroke-width="8" stroke="url(#SvgjsLinearGradient1070)" stroke-linecap="round" class="Up"></path><path d="M1805 202L1804 -20" stroke-width="6" stroke="url(#SvgjsLinearGradient1069)" stroke-linecap="round" class="Down"></path><path d="M15 182L14 352" stroke-width="8" stroke="url(#SvgjsLinearGradient1069)" stroke-linecap="round" class="Down"></path><path d="M67 46L66 303" stroke-width="10" stroke="url(#SvgjsLinearGradient1069)" stroke-linecap="round" class="Down"></path><path d="M693 132L692 -50" stroke-width="8" stroke="url(#SvgjsLinearGradient1070)" stroke-linecap="round" class="Up"></path><path d="M294 254L293 433" stroke-width="6" stroke="url(#SvgjsLinearGradient1069)" stroke-linecap="round" class="Down"></path><path d="M640 164L639 -54" stroke-width="10" stroke="url(#SvgjsLinearGradient1069)" stroke-linecap="round" class="Down"></path><path d="M688 50L687 -74" stroke-width="6" stroke="url(#SvgjsLinearGradient1070)" stroke-linecap="round" class="Up"></path><path d="M521 33L520 -245" stroke-width="8" stroke="url(#SvgjsLinearGradient1069)" stroke-linecap="round" class="Down"></path><path d="M1604 230L1603 509" stroke-width="10" stroke="url(#SvgjsLinearGradient1070)" stroke-linecap="round" class="Up"></path><path d="M1048 392L1047 164" stroke-width="6" stroke="url(#SvgjsLinearGradient1070)" stroke-linecap="round" class="Up"></path><path d="M1418 360L1417 594" stroke-width="8" stroke="url(#SvgjsLinearGradient1069)" stroke-linecap="round" class="Down"></path><path d="M638 109L637 -179" stroke-width="8" stroke="url(#SvgjsLinearGradient1069)" stroke-linecap="round" class="Down"></path><path d="M70 278L69 157" stroke-width="10" stroke="url(#SvgjsLinearGradient1070)" stroke-linecap="round" class="Up"></path><path d="M324 132L323 -166" stroke-width="6" stroke="url(#SvgjsLinearGradient1070)" stroke-linecap="round" class="Up"></path><path d="M249 129L248 377" stroke-width="6" stroke="url(#SvgjsLinearGradient1069)" stroke-linecap="round" class="Down"></path><path d="M1172 291L1171 135" stroke-width="8" stroke="url(#SvgjsLinearGradient1069)" stroke-linecap="round" class="Down"></path><path d="M847 70L846 182" stroke-width="6" stroke="url(#SvgjsLinearGradient1070)" stroke-linecap="round" class="Up"></path><path d="M1432 369L1431 147" stroke-width="8" stroke="url(#SvgjsLinearGradient1069)" stroke-linecap="round" class="Down"></path><path d="M1337 269L1336 385" stroke-width="10" stroke="url(#SvgjsLinearGradient1069)" stroke-linecap="round" class="Down"></path><path d="M756 128L755 238" stroke-width="8" stroke="url(#SvgjsLinearGradient1069)" stroke-linecap="round" class="Down"></path><path d="M1639 32L1638 266" stroke-width="6" stroke="url(#SvgjsLinearGradient1070)" stroke-linecap="round" class="Up"></path><path d="M192 358L191 63" stroke-width="8" stroke="url(#SvgjsLinearGradient1070)" stroke-linecap="round" class="Up"></path><path d="M547 138L546 294" stroke-width="6" stroke="url(#SvgjsLinearGradient1069)" stroke-linecap="round" class="Down"></path><path d="M137 265L136 437" stroke-width="6" stroke="url(#SvgjsLinearGradient1069)" stroke-linecap="round" class="Down"></path><path d="M1159 47L1158 -237" stroke-width="6" stroke="url(#SvgjsLinearGradient1069)" stroke-linecap="round" class="Down"></path><path d="M408 378L407 269" stroke-width="8" stroke="url(#SvgjsLinearGradient1069)" stroke-linecap="round" class="Down"></path><path d="M1074 187L1073 55" stroke-width="10" stroke="url(#SvgjsLinearGradient1069)" stroke-linecap="round" class="Down"></path><path d="M1552 181L1551 46" stroke-width="8" stroke="url(#SvgjsLinearGradient1069)" stroke-linecap="round" class="Down"></path><path d="M1118 375L1117 525" stroke-width="10" stroke="url(#SvgjsLinearGradient1069)" stroke-linecap="round" class="Down"></path><path d="M1884 336L1883 478" stroke-width="10" stroke="url(#SvgjsLinearGradient1070)" stroke-linecap="round" class="Up"></path><path d="M1483 322L1482 159" stroke-width="6" stroke="url(#SvgjsLinearGradient1069)" stroke-linecap="round" class="Down"></path><path d="M1618 226L1617 -40" stroke-width="6" stroke="url(#SvgjsLinearGradient1070)" stroke-linecap="round" class="Up"></path><path d="M386 302L385 404" stroke-width="10" stroke="url(#SvgjsLinearGradient1069)" stroke-linecap="round" class="Down"></path><path d="M82 302L81 552" stroke-width="6" stroke="url(#SvgjsLinearGradient1069)" stroke-linecap="round" class="Down"></path><path d="M964 93L963 -207" stroke-width="8" stroke="url(#SvgjsLinearGradient1069)" stroke-linecap="round" class="Down"></path><path d="M1500 391L1499 691" stroke-width="8" stroke="url(#SvgjsLinearGradient1070)" stroke-linecap="round" class="Up"></path><path d="M1678 105L1677 295" stroke-width="6" stroke="url(#SvgjsLinearGradient1070)" stroke-linecap="round" class="Up"></path><path d="M990 14L989 -266" stroke-width="8" stroke="url(#SvgjsLinearGradient1070)" stroke-linecap="round" class="Up"></path><path d="M1360 333L1359 445" stroke-width="6" stroke="url(#SvgjsLinearGradient1069)" stroke-linecap="round" class="Down"></path><path d="M1635 44L1634 -154" stroke-width="10" stroke="url(#SvgjsLinearGradient1069)" stroke-linecap="round" class="Down"></path><path d="M99 220L98 34" stroke-width="10" stroke="url(#SvgjsLinearGradient1069)" stroke-linecap="round" class="Down"></path><path d="M357 338L356 42" stroke-width="8" stroke="url(#SvgjsLinearGradient1070)" stroke-linecap="round" class="Up"></path><path d="M377 162L376 295" stroke-width="8" stroke="url(#SvgjsLinearGradient1070)" stroke-linecap="round" class="Up"></path></g><defs><mask id="SvgjsMask1068"><rect width="1920" height="400" fill="#ffffff"></rect></mask><linearGradient x1="0%" y1="0%" x2="0%" y2="100%" id="SvgjsLinearGradient1069"><stop stop-color="rgba(139, 214, 239, 0)" offset="0"></stop><stop stop-color="rgba(139, 214, 239, 1)" offset="1"></stop></linearGradient><linearGradient x1="0%" y1="100%" x2="0%" y2="0%" id="SvgjsLinearGradient1070"><stop stop-color="rgba(139, 214, 239, 0)" offset="0"></stop><stop stop-color="rgba(139, 214, 239, 1)" offset="1"></stop></linearGradient></defs></svg>