<svg xmlns="http://www.w3.org/2000/svg" version="1.1" xmlns:xlink="http://www.w3.org/1999/xlink" xmlns:svgjs="http://svgjs.com/svgjs" width="1920" height="400" preserveAspectRatio="none" viewBox="0 0 1920 400"><g mask="url(&quot;#SvgjsMask1091&quot;)" fill="none"><rect width="1920" height="400" x="0" y="0" fill="rgba(54, 191, 237, 1)"></rect><path d="M0,735.294C167.672,737.503,347.672,850.947,491.945,765.482C635.954,680.174,626.317,469.935,700.903,320.092C778.885,163.426,981.216,34.952,940.265,-135.19C898.346,-309.355,651.618,-330.016,516.205,-447.294C406.392,-542.401,363.378,-722.434,222.282,-757.021C81.186,-791.608,-40.281,-652.169,-181.56,-618.338C-333.659,-581.916,-525.873,-662.105,-636.357,-551.407C-745.77,-441.782,-666.939,-252.064,-698.472,-100.425C-732.902,65.146,-871.119,214.974,-829.827,378.969C-787.515,547.016,-642.917,684.253,-483.684,752.627C-332.376,817.598,-164.653,733.125,0,735.294" fill="#13a5d6"></path><path d="M1920 982.792C2028.25 976.065 2067.204 829.6610000000001 2158.865 771.682 2251.564 713.046 2402.846 740.816 2455.052 644.35 2506.59 549.119 2421.694 436.859 2397.143 331.397 2374.978 236.188 2390.075 121.149 2317.902 55.21600000000001 2246.048-10.425000000000011 2125.944 41.26799999999997 2036.801 2.211999999999989 1926.934-45.92399999999998 1863.214-216.48800000000006 1745.07-195.75699999999995 1631.651-175.85500000000002 1629.059-4.295000000000016 1557.909 86.24599999999998 1491.516 170.733 1365.7240000000002 212.08 1342.187 316.923 1318.49 422.477 1378.662 529.679 1438.061 620.094 1491.922 702.079 1582.883 743.619 1661.261 802.605 1746.972 867.11 1812.935 989.446 1920 982.792" fill="#6bd0f2"></path></g><defs><mask id="SvgjsMask1091"><rect width="1920" height="400" fill="#ffffff"></rect></mask></defs></svg>