<svg xmlns="http://www.w3.org/2000/svg" version="1.1" xmlns:xlink="http://www.w3.org/1999/xlink" xmlns:svgjs="http://svgjs.com/svgjs" width="1920" height="400" preserveAspectRatio="none" viewBox="0 0 1920 400"><g mask="url(&quot;#SvgjsMask1032&quot;)" fill="none"><rect width="1920" height="400" x="0" y="0" fill="rgba(216, 245, 255, 1)"></rect><path d="M 0,322 C 76.8,292.6 230.4,196 384,175 C 537.6,154 614.4,235.6 768,217 C 921.6,198.4 998.4,80.6 1152,82 C 1305.6,83.4 1382.4,221.4 1536,224 C 1689.6,226.6 1843.2,120.8 1920,95L1920 400L0 400z" fill="rgba(160, 217, 237, 1)"></path><path d="M 0,34 C 128,92.4 384,294.2 640,326 C 896,357.8 1024,204.4 1280,193 C 1536,181.6 1792,253.8 1920,269L1920 400L0 400z" fill="rgba(54, 191, 237, 1)"></path></g><defs><mask id="SvgjsMask1032"><rect width="1920" height="400" fill="#ffffff"></rect></mask></defs></svg>