<svg xmlns="http://www.w3.org/2000/svg" version="1.1" xmlns:xlink="http://www.w3.org/1999/xlink" xmlns:svgjs="http://svgjs.com/svgjs" width="1920" height="400" preserveAspectRatio="none" viewBox="0 0 1920 400"><g mask="url(&quot;#SvgjsMask1015&quot;)" fill="none"><rect width="1920" height="400" x="0" y="0" fill="rgba(54, 191, 237, 1)"></rect><path d="M 0,108 C 76.8,94.8 230.4,25.8 384,42 C 537.6,58.2 614.4,184.8 768,189 C 921.6,193.2 998.4,73 1152,63 C 1305.6,53 1382.4,142.2 1536,139 C 1689.6,135.8 1843.2,65.4 1920,47L1920 400L0 400z" fill="rgba(159, 222, 243, 1)"></path><path d="M 0,263 C 128,290 384,404.6 640,398 C 896,391.4 1024,240 1280,230 C 1536,220 1792,324.4 1920,348L1920 400L0 400z" fill="rgba(193, 233, 247, 1)"></path></g><defs><mask id="SvgjsMask1015"><rect width="1920" height="400" fill="#ffffff"></rect></mask></defs></svg>